<svg xmlns="http://www.w3.org/2000/svg" width="140" height="53" viewBox="0 0 140 53" style="background:#fff">
  <g fill="none" fill-rule="evenodd">
    <rect width="140" height="53" fill="#FFF"/>
    <g fill="#BA0C2F" transform="translate(87)">
      <path d="M6.76543779,29.3462963 C6.93640553,26.8680556 7.40046083,24.3898148 7.86451613,22.4268519 C9.25668203,16.3907407 11.5769585,11.8023148 14.8986175,11.8023148 C17.19447,11.8023148 18.0493088,13.3972222 18.0737327,15.3111111 C18.1225806,20.3166667 14.0926267,26.4018519 9.28110599,30.2541667 C9.2078341,32.6587963 9.98940092,33.762963 11.3815668,33.762963 C13.897235,33.762963 16.4129032,31.1865741 18.5866359,25.9847222 C18.8797235,25.2731481 19.1728111,24.4634259 19.4658986,23.6782407 C19.90553,22.5740741 22.1525346,23.212037 21.835023,24.3162037 C21.1511521,26.6472222 20.0276498,29.7143519 20.0276498,31.7509259 C20.0276498,33.100463 20.7115207,33.6893519 21.7129032,33.6648148 C23.1050691,33.6402778 24.2529954,32.6342593 25.0589862,31.6527778 C25.0589862,31.6527778 25.6207373,28.7574074 25.7917051,27.9722222 C28.1608295,16.7097222 30.8718894,11.8268519 34.437788,11.8268519 C36.5626728,11.8268519 37.6617512,13.1518519 37.6617512,15.262037 C37.6617512,19.1634259 34.9751152,23.6537037 29.8460829,29.837037 C31.4580645,30.4013889 33.2165899,30.8185185 35.4635945,30.8185185 C35.5857143,30.8185185 35.9032258,30.8185185 36.0253456,30.8185185 C35.9764977,30.499537 35.9276498,29.9351852 35.9276498,29.4689815 C35.9276498,25.1013889 39.0539171,21.9606481 42.8884793,21.9606481 C45.4041475,21.9606481 47.3580645,23.1384259 47.3580645,25.7393519 C47.3580645,29.0027778 43.9142857,31.5791667 39.5912442,32.4625 C40.2751152,33.2722222 41.5940092,33.8365741 43.4502304,33.8365741 C47.6023041,33.8365741 50.8018433,31.775463 52.9267281,29.787963 L52.9267281,0 L0.170967742,0 L0.170967742,32.8550926 C2.61336406,31.9472222 4.88479263,30.7203704 6.76543779,29.3462963 Z M22.2746544,17.225 C23.2516129,17.225 24.0331797,18.0347222 23.9843318,19.0162037 C23.9354839,19.9976852 23.1050691,20.8074074 22.1036866,20.8074074 C21.1023041,20.8074074 20.3451613,19.9976852 20.3940092,19.0162037 C20.4428571,18.0347222 21.2976959,17.225 22.2746544,17.225 Z"/>
      <path d="M42.9373272 24.0953704C40.2506912 24.0953704 38.6142857 26.7699074 38.6142857 29.4689815 38.6142857 29.8861111 38.6631336 30.2050926 38.7119816 30.499537 42.7907834 29.7143519 44.7691244 27.5305556 44.7691244 25.812963 44.7691244 24.7087963 44.0852535 24.0953704 42.9373272 24.0953704zM34.4133641 13.9125C33.143318 13.9125 30.5788018 17.5930556 28.3562212 28.1930556 32.1175115 23.4083333 35.1949309 17.9856481 35.1949309 15.1638889 35.1705069 14.4523148 34.9751152 13.9125 34.4133641 13.9125zM43.4746544 36.1185185C39.8599078 36.1185185 37.8082949 34.6953704 36.7336406 32.9287037 36.3672811 32.9532407 35.9520737 32.9532407 35.5857143 32.9532407 33.6806452 32.9532407 31.9465438 32.6833333 30.7253456 32.2907407 31.7023041 34.4009259 32.3373272 37.1490741 32.3373272 39.6518519 32.3373272 44.412037 30.6276498 47.5527778 27.3548387 47.5527778 25.0345622 47.5527778 23.7156682 45.8597222 23.6668203 42.3509259 23.6423963 39.7990741 23.9599078 37.6643519 24.4728111 34.7935185 23.6912442 35.4560185 22.5677419 35.9222222 21.2488479 35.9467593 18.8552995 35.9467593 17.5119816 34.425463 17.4142857 32.3152778 15.5580645 34.8425926 13.3110599 36.0449074 10.9663594 36.0449074 8.42626728 36.0449074 7.05852535 34.4009259 6.78986175 31.9472222 4.95806452 33.125 2.73548387 34.3273148.195391705 35.2351852L.195391705 53 52.9511521 53 52.9511521 32.7078704C50.1179724 34.9652778 46.8695853 36.1185185 43.4746544 36.1185185zM14.8741935 13.9125C13.5064516 13.9125 11.0884793 18.0347222 9.57419355 27.0888889 13.8728111 22.8930556 15.6313364 17.4458333 15.6313364 15.262037 15.6313364 14.2560185 15.3626728 13.9125 14.8741935 13.9125z"/>
      <path d="M27.5258065,32.1925926 C26.9640553,34.7935185 26.2069124,39.4064815 26.2069124,42.3018519 C26.2069124,43.9949074 26.5732719,45.074537 27.5502304,45.074537 C29.2599078,45.074537 29.7483871,42.0810185 29.7483871,39.8481481 C29.7483871,36.9527778 29.0156682,33.9347222 27.8677419,31.824537 L27.5258065,32.1925926 Z"/>
    </g>
    <path fill="#838271" d="M24.2756024 20.05C24.0804217 19.775 23.9340361 19.35 23.8608434 18.825 23.763253 18.25 23.7388554 17.425 23.7388554 16.375L23.7388554 11.675C23.7388554 10.85 23.6656627 10.125 23.4948795 9.475 23.3240964 8.85 23.0557229 8.325 22.6653614 7.875 22.275 7.45 21.738253 7.125 21.1039157 6.925 20.4695783 6.725 19.6400602 6.6 18.6885542 6.6 18.1274096 6.6 17.5418675 6.65 16.9563253 6.75 16.3707831 6.85 15.8340361 6.975 15.3460843 7.15 14.8581325 7.325 14.4677711 7.525 14.1506024 7.75 13.8578313 7.975 13.6870482 8.225 13.6870482 8.475 13.6870482 8.65 13.7358434 8.9 13.8578313 9.25 13.9798193 9.6 14.1262048 9.9 14.3213855 10.2 14.9069277 9.775 15.4924699 9.475 16.1024096 9.225 16.7123494 8.975 17.4686747 8.85 18.346988 8.85 19.4204819 8.85 20.1524096 9.05 20.5183735 9.475 20.9087349 9.9 21.0795181 10.5 21.0795181 11.3L21.0795181 11.75C20.9087349 11.725 20.7135542 11.725 20.4939759 11.725 20.2743976 11.725 20.0792169 11.725 19.9084337 11.725 19.2253012 11.75 18.4689759 11.825 17.6638554 11.95 16.8587349 12.075 16.078012 12.325 15.3704819 12.7 14.6629518 13.075 14.053012 13.55 13.5650602 14.175 13.0771084 14.8 12.8331325 15.6 12.8331325 16.575L12.8331325 16.575C12.8331325 17.375 12.9795181 18.05 13.223494 18.575 13.4674699 19.1 13.8334337 19.525 14.2481928 19.825 14.6629518 20.125 15.126506 20.35 15.6144578 20.45 16.1268072 20.575 16.614759 20.625 17.1027108 20.625 18.1274096 20.625 18.9569277 20.475 19.5912651 20.125 20.2256024 19.8 20.7623494 19.4 21.201506 18.925 21.2746988 19.475 21.4942771 19.875 21.9090361 20.075 22.2993976 20.3 22.7629518 20.4 23.2996988 20.4 23.4704819 20.4 23.6168675 20.4 23.7876506 20.375 23.9584337 20.35 24.0804217 20.35 24.178012 20.3 24.2756024 20.275 24.3487952 20.2 24.3487952 20.1 24.3 20.125 24.3 20.075 24.2756024 20.05zM21.0795181 16.475C21.0795181 16.7 20.9819277 16.925 20.8111446 17.175 20.6159639 17.425 20.371988 17.625 20.0548193 17.825 19.7376506 18.025 19.3716867 18.2 18.9813253 18.325 18.5665663 18.45 18.1518072 18.525 17.688253 18.525 16.8343373 18.525 16.2487952 18.3 15.9316265 17.9 15.6144578 17.475 15.4680723 17 15.4680723 16.425 15.4680723 15.825 15.6144578 15.35 15.9072289 15 16.2 14.65 16.5903614 14.35 17.0539157 14.15 17.5174699 13.95 18.0542169 13.8 18.6153614 13.725 19.2009036 13.65 19.7620482 13.625 20.3231928 13.625L21.0795181 13.625 21.0795181 16.475 21.0795181 16.475zM52.6256024 20.05C52.4304217 19.775 52.2840361 19.35 52.2108434 18.825 52.113253 18.25 52.0888554 17.425 52.0888554 16.375L52.0888554 11.675C52.0888554 10.85 52.0156627 10.125 51.8448795 9.475 51.6740964 8.85 51.4057229 8.325 50.9909639 7.875 50.6006024 7.45 50.0638554 7.125 49.4295181 6.925 48.7951807 6.725 47.9656627 6.6 47.0141566 6.6 46.453012 6.6 45.8674699 6.65 45.2819277 6.75 44.6963855 6.85 44.1596386 6.975 43.6716867 7.15 43.1837349 7.325 42.7933735 7.525 42.4762048 7.75 42.1834337 7.975 42.0126506 8.225 42.0126506 8.475 42.0126506 8.65 42.0614458 8.9 42.1834337 9.25 42.3054217 9.6 42.4518072 9.9 42.646988 10.2 43.2325301 9.775 43.8180723 9.475 44.428012 9.225 45.0379518 8.975 45.7942771 8.85 46.6725904 8.85 47.7460843 8.85 48.478012 9.05 48.8439759 9.475 49.2099398 9.9 49.4051205 10.5 49.4051205 11.3L49.4051205 11.75C49.2343373 11.725 49.0391566 11.725 48.8195783 11.725 48.6 11.725 48.4048193 11.725 48.2340361 11.725 47.5509036 11.75 46.7945783 11.825 45.9894578 11.95 45.1599398 12.075 44.4036145 12.325 43.6716867 12.7 42.939759 13.075 42.3542169 13.55 41.8662651 14.175 41.3783133 14.8 41.1343373 15.6 41.1343373 16.575L41.1343373 16.575C41.1343373 17.375 41.2563253 18.05 41.5246988 18.575 41.7930723 19.1 42.1346386 19.525 42.5493976 19.825 42.9641566 20.125 43.4033133 20.35 43.9156627 20.45 44.428012 20.55 44.9159639 20.625 45.4039157 20.625 46.4286145 20.625 47.2581325 20.475 47.8924699 20.125 48.5268072 19.775 49.0635542 19.4 49.5027108 18.925 49.5759036 19.475 49.7954819 19.875 50.210241 20.075 50.625 20.275 51.0641566 20.4 51.6009036 20.4 51.7716867 20.4 51.9180723 20.4 52.0888554 20.375 52.2596386 20.35 52.3816265 20.35 52.4792169 20.3 52.5768072 20.275 52.65 20.2 52.65 20.1 52.6743976 20.125 52.65 20.075 52.6256024 20.05zM49.4539157 16.475C49.4539157 16.7 49.3563253 16.925 49.1855422 17.175 48.9903614 17.425 48.7463855 17.625 48.4292169 17.825 48.1120482 18.025 47.7460843 18.2 47.3313253 18.325 46.9165663 18.45 46.4774096 18.525 46.038253 18.525 45.1843373 18.525 44.5987952 18.3 44.2816265 17.9 43.9644578 17.5 43.8180723 17 43.8180723 16.425 43.8180723 15.825 43.9644578 15.35 44.2572289 15 44.55 14.65 44.9403614 14.35 45.4039157 14.15 45.8674699 13.95 46.4042169 13.8 46.9653614 13.725 47.5509036 13.65 48.1120482 13.625 48.6731928 13.625L49.4295181 13.625 49.4539157 16.475 49.4539157 16.475zM67.2153614 20.05C67.0201807 19.775 66.8737952 19.35 66.8006024 18.825 66.703012 18.25 66.6786145 17.425 66.6786145 16.375L66.6786145 2.5C66.6786145 2.025 66.6298193 1.625 66.5078313 1.325 66.3858434 1.025 66.2638554.8 66.0686747.6 65.873494.425 65.6783133.3 65.4343373.25 65.1903614.2 64.9463855.15 64.7268072.15 64.6048193.15 64.4828313.15 64.3120482.15 64.1656627.15 64.0436747.175 63.9704819.175L63.9704819 7.95C63.6777108 7.675 63.2385542 7.375 62.6286145 7.1 62.0186747 6.825 61.2623494 6.675 60.335241 6.675 59.6277108 6.675 58.9689759 6.825 58.310241 7.1 57.651506 7.375 57.0903614 7.8 56.578012 8.375 56.0900602 8.95 55.6996988 9.675 55.3825301 10.6 55.089759 11.5 54.9433735 12.575 54.9433735 13.825 54.9433735 15.125 55.089759 16.225 55.4069277 17.1 55.6996988 17.975 56.1144578 18.7 56.6268072 19.225 57.1391566 19.75 57.7246988 20.125 58.3834337 20.35 59.0421687 20.575 59.7253012 20.7 60.4084337 20.7 61.3843373 20.7 62.1894578 20.5 62.7993976 20.1 63.4337349 19.7 63.8728916 19.325 64.1412651 18.95 64.2144578 19.5 64.4340361 19.9 64.8487952 20.1 65.2635542 20.3 65.7027108 20.425 66.2394578 20.425 66.410241 20.425 66.5566265 20.425 66.7274096 20.4 66.8981928 20.375 67.0201807 20.375 67.1177711 20.325 67.2153614 20.3 67.2885542 20.225 67.2885542 20.125 67.239759 20.125 67.239759 20.075 67.2153614 20.05zM63.9460843 16.7C63.9460843 16.925 63.8728916 17.15 63.726506 17.35 63.5801205 17.55 63.3849398 17.75 63.1409639 17.925 62.8725904 18.1 62.5798193 18.225 62.2138554 18.325 61.8478916 18.425 61.4819277 18.5 61.0671687 18.5 60.4572289 18.5 59.9204819 18.375 59.5057229 18.125 59.0909639 17.875 58.7493976 17.525 58.4810241 17.075 58.2126506 16.625 58.0418675 16.1 57.9442771 15.5 57.8466867 14.9 57.7978916 14.25 57.7978916 13.525 57.7978916 12 58.0906627 10.825 58.6518072 10.05 59.2129518 9.275 59.9936747 8.875 60.9695783 8.875 61.3843373 8.875 61.7503012 8.925 62.0918675 9.025 62.4334337 9.125 62.7018072 9.25 62.9701807 9.4 63.2141566 9.55 63.4337349 9.7 63.5801205 9.875 63.726506 10.025 63.848494 10.15 63.9460843 10.25L63.9460843 16.7 63.9460843 16.7zM80.9024096 20.05C80.7072289 19.775 80.5608434 19.35 80.4876506 18.825 80.3900602 18.25 80.3656627 17.425 80.3656627 16.375L80.3656627 11.675C80.3656627 10.85 80.2924699 10.125 80.1216867 9.475 79.9509036 8.85 79.6825301 8.325 79.2677711 7.875 78.8774096 7.45 78.3406627 7.125 77.7063253 6.925 77.071988 6.725 76.2424699 6.6 75.2909639 6.6 74.7298193 6.6 74.1442771 6.65 73.5587349 6.75 72.9731928 6.85 72.4364458 6.975 71.948494 7.15 71.4605422 7.325 71.0701807 7.525 70.753012 7.75 70.460241 7.975 70.2894578 8.225 70.2894578 8.475 70.2894578 8.65 70.338253 8.9 70.460241 9.25 70.5822289 9.6 70.7286145 9.9 70.9237952 10.2 71.5093373 9.775 72.0948795 9.475 72.7048193 9.225 73.314759 8.975 74.0710843 8.85 74.9493976 8.85 76.0228916 8.85 76.7548193 9.05 77.1207831 9.475 77.486747 9.9 77.6819277 10.5 77.6819277 11.3L77.6819277 11.75C77.5111446 11.725 77.3159639 11.725 77.0963855 11.725 76.8768072 11.725 76.6816265 11.725 76.5108434 11.725 75.8277108 11.75 75.0713855 11.825 74.2662651 11.95 73.436747 12.075 72.6804217 12.325 71.948494 12.7 71.2165663 13.075 70.6310241 13.55 70.1430723 14.175 69.6551205 14.8 69.4111446 15.6 69.4111446 16.575L69.4111446 16.575C69.4111446 17.375 69.5331325 18.05 69.801506 18.575 70.0698795 19.1 70.4114458 19.525 70.8262048 19.825 71.2409639 20.125 71.6801205 20.35 72.1924699 20.45 72.7048193 20.55 73.1927711 20.625 73.6807229 20.625 74.7054217 20.625 75.5349398 20.475 76.1692771 20.125 76.8036145 19.775 77.3403614 19.4 77.7795181 18.925 77.8527108 19.475 78.0722892 19.875 78.4870482 20.075 78.9018072 20.275 79.3409639 20.4 79.8777108 20.4 80.048494 20.4 80.1948795 20.4 80.3656627 20.375 80.5364458 20.35 80.6584337 20.35 80.7560241 20.3 80.8536145 20.275 80.9268072 20.2 80.9268072 20.1 80.9512048 20.125 80.9268072 20.075 80.9024096 20.05zM77.7307229 16.475C77.7307229 16.7 77.6331325 16.925 77.4623494 17.175 77.2671687 17.425 77.0231928 17.625 76.7060241 17.825 76.3888554 18.025 76.0228916 18.2 75.6081325 18.325 75.1933735 18.45 74.7542169 18.525 74.3150602 18.525 73.4611446 18.525 72.8756024 18.3 72.5584337 17.9 72.2412651 17.5 72.0948795 17 72.0948795 16.425 72.0948795 15.825 72.2412651 15.35 72.5340361 15 72.8268072 14.65 73.2171687 14.35 73.6807229 14.15 74.1442771 13.95 74.6810241 13.8 75.2421687 13.725 75.8277108 13.65 76.3888554 13.625 76.95 13.625L77.7063253 13.625 77.7307229 16.475 77.7307229 16.475zM2.7813253 13.65C2.7813253 14.325 2.85451807 14.95 3.00090361 15.55 3.14728916 16.15 3.36686747 16.65 3.68403614 17.1 4.00120482 17.55 4.39156627 17.875 4.87951807 18.125 5.36746988 18.375 5.95301205 18.5 6.63614458 18.5 7.12409639 18.5 7.5876506 18.425 7.97801205 18.275 8.36837349 18.125 8.70993976 17.95 8.97831325 17.75 9.31987952 17.525 9.6126506 17.275 9.85662651 17 10.003012 17.175 10.1981928 17.425 10.4177711 17.775 10.6373494 18.125 10.7593373 18.45 10.7593373 18.75 10.7593373 18.85 10.7349398 18.95 10.6861446 19.05 10.5885542 19.225 10.4421687 19.425 10.1981928 19.65 9.85662651 19.95 9.34427711 20.225 8.68554217 20.45 8.02680723 20.675 7.22168675 20.8 6.27018072 20.8 5.66024096 20.8 5.00150602 20.7 4.26957831 20.55 3.5376506 20.375 2.85451807 20.025 2.24457831 19.525 1.61024096 19 1.07349398 18.3.65873494 17.375.219578313 16.45.0243975904 15.225.0243975904 13.725.0243975904 12.325.243975904 11.175.70753012 10.25 1.14668675 9.35 1.70783133 8.625 2.36656627 8.1 3.0253012 7.575 3.73283133 7.225 4.46475904 7 5.19668675 6.8 5.85542169 6.7 6.41656627 6.7 7.0996988 6.7 7.73403614 6.775 8.27078313 6.925 8.83192771 7.075 9.29548193 7.275 9.68584337 7.5 10.0518072 7.725 10.3445783 7.95 10.5153614 8.175 10.7105422 8.425 10.7837349 8.65 10.7837349 8.9 10.7837349 9.375 10.4421687 10.025 10.0274096 10.625 9.73463855 10.275 9.27108434 9.9 8.68554217 9.55 8.1 9.2 7.44126506 9.025 6.70933735 9.025 6.00180723 9.025 5.41626506 9.15 4.92831325 9.375 4.44036145 9.6 4.02560241 9.95 3.70843373 10.375 3.39126506 10.8 3.14728916 11.3 3.00090361 11.875 2.85451807 12.375 2.7813253 13 2.7813253 13.65zM38.475 20.375L35.7668675 20.375 35.7668675 12.7C35.7668675 12.175 35.7424699 11.675 35.7180723 11.225 35.6936747 10.775 35.5960843 10.375 35.4253012 10.05 35.2789157 9.725 35.0105422 9.475 34.6689759 9.3 34.3274096 9.125 33.8394578 9.025 33.2051205 9.025 32.3268072 9.025 31.5460843 9.2 30.911747 9.625 30.2774096 10.05 29.960241 10.6 29.960241 11.225L29.960241 20.35 27.2277108 20.35 27.2277108 6.9C27.276506 6.9 27.3253012 6.9 27.3740964 6.875 27.4228916 6.875 27.4716867 6.875 27.5448795 6.875 27.6180723 6.875 27.6912651 6.875 27.7644578 6.875 28.2524096 6.875 28.6915663 7 29.0819277 7.225 29.4722892 7.45 29.7162651 7.85 29.7894578 8.4 30.2042169 7.95 30.789759 7.525 31.5216867 7.175 32.2536145 6.825 33.1075301 6.625 34.1078313 6.625 35.376506 6.625 36.328012 6.9 36.986747 7.5 37.6454819 8.075 38.0846386 8.8 38.3042169 9.65 38.4018072 10.025 38.4506024 10.45 38.475 10.925 38.4993976 11.4 38.4993976 11.85 38.4993976 12.3L38.475 20.375 38.475 20.375 38.475 20.375z" transform="translate(0 16)"/>
  </g>
</svg>
